HIERARCHY
ROOT Hips
{
 OFFSET 0.000000 0.000000 0.000000
 CHANNELS 6 Xposition Yposition Zposition Yrotation Xrotation Zrotation
 JOINT Chest
 {
  OFFSET 0.000000 9.585900 0.002600
  CHANNELS 3 Yrotation Xrotation Zrotation
  JOINT Chest2
  {
   OFFSET 0.000000 9.601200 -0.005300
   CHANNELS 3 Yrotation Xrotation Zrotation
   JOINT Chest3
   {
    OFFSET 0.000000 9.561800 0.000000
    CHANNELS 3 Yrotation Xrotation Zrotation
    JOINT Chest4
    {
     OFFSET 0.000000 9.552100 0.000000
     CHANNELS 3 Yrotation Xrotation Zrotation
     JOINT Neck
     {
      OFFSET 0.000000 14.453000 0.000000
      CHANNELS 3 Yrotation Xrotation Zrotation
      JOINT Head
      {
       OFFSET 0.000000 8.936500 -0.011300
       CHANNELS 3 Yrotation Xrotation Zrotation
       End Site
       {
        OFFSET 0.000000 17.073600 -0.006000
       }
      }
     }
     JOINT RightCollar
     {
      OFFSET -2.921100 9.558500 0.000000
      CHANNELS 3 Yrotation Xrotation Zrotation
      JOINT RightShoulder
      {
       OFFSET -13.519700 0.000000 0.000000
       CHANNELS 3 Yrotation Xrotation Zrotation
       JOINT RightElbow
       {
        OFFSET 0.000000 -29.696600 0.000000
        CHANNELS 3 Yrotation Xrotation Zrotation
        JOINT RightWrist
        {
         OFFSET 0.000000 -24.004700 0.000000
         CHANNELS 3 Yrotation Xrotation Zrotation
         End Site
         {
          OFFSET 0.000000 -17.728500 0.000000
         }
        }
       }
      }
     }
     JOINT LeftCollar
     {
      OFFSET 2.921100 9.558500 0.000000
      CHANNELS 3 Yrotation Xrotation Zrotation
      JOINT LeftShoulder
      {
       OFFSET 13.519700 0.000000 0.000000
       CHANNELS 3 Yrotation Xrotation Zrotation
       JOINT LeftElbow
       {
        OFFSET 0.000000 -29.696600 0.000000
        CHANNELS 3 Yrotation Xrotation Zrotation
        JOINT LeftWrist
        {
         OFFSET 0.000000 -24.004700 0.000000
         CHANNELS 3 Yrotation Xrotation Zrotation
         End Site
         {
          OFFSET 0.000000 -17.728500 0.000000
         }
        }
       }
      }
     }
    }
   }
  }
 }
 JOINT RightHip
 {
  OFFSET -7.771700 -0.012900 -0.001300
  CHANNELS 3 Yrotation Xrotation Zrotation
  JOINT RightKnee
  {
   OFFSET 0.000000 -40.869800 0.001200
   CHANNELS 3 Yrotation Xrotation Zrotation
   JOINT RightAnkle
   {
    OFFSET 0.000000 -39.717900 0.002100
    CHANNELS 3 Yrotation Xrotation Zrotation
    JOINT RightToe
    {
     OFFSET 0.000000 -4.965400 11.033500
     CHANNELS 3 Yrotation Xrotation Zrotation
     End Site
     {
      OFFSET 0.000000 -1.423100 5.872300
     }
    }
   }
  }
 }
 JOINT LeftHip
 {
  OFFSET 7.771700 -0.012900 -0.001300
  CHANNELS 3 Yrotation Xrotation Zrotation
  JOINT LeftKnee
  {
   OFFSET 0.000000 -40.869800 0.001200
   CHANNELS 3 Yrotation Xrotation Zrotation
   JOINT LeftAnkle
   {
    OFFSET 0.000000 -39.717900 0.002100
    CHANNELS 3 Yrotation Xrotation Zrotation
    JOINT LeftToe
    {
     OFFSET 0.000000 -4.965400 11.033500
     CHANNELS 3 Yrotation Xrotation Zrotation
     End Site
     {
      OFFSET 0.000000 -1.423100 5.872300
     }
    }
   }
  }
 }
}
MOTION
Frames: 13
Frame Time: 0.008333
0.000000 85.388000 0.000000 0.000000 -5.767877 0.000000 0.000000 11.653817 0.000000 0.000000 -5.885947 0.000000 0.000000 -0.000000 0.000000 0.000000 -0.000000 0.000000 0.000000 12.528835 0.000000 0.000000 0.711642 0.000000 0.000000 -0.000000 0.000000 0.000000 0.000000 -90.000000 0.000000 -2.309062 0.000000 0.000000 2.309062 0.000000 0.000000 -0.000000 0.000000 0.000000 -0.000000 90.000000 0.000000 -2.309062 0.000000 0.000000 2.309062 0.000000 0.000000 8.520406 0.000000 0.000000 1.905762 0.000000 -0.000000 -4.658285 0.000000 0.000000 -0.000000 0.000000 0.000000 8.520406 0.000000 0.000000 1.905762 0.000000 -0.000000 -4.658285 0.000000 0.000000 -0.000000 0.000000
29.815763 49.917845 64.353096 173.131874 -33.088609 -6.483076 8.207930 22.256033 6.881546 1.110017 3.424305 0.713672 1.808180 5.498772 1.181746 6.847728 18.617636 4.903570 -4.081052 16.101598 2.961158 -8.627510 -5.547537 6.941373 -3.802002 -2.907278 -8.324983 10.732941 -5.215039 -6.616228 -170.342873 -52.236507 177.538084 -7.375292 -15.347397 25.525367 -12.731897 -2.949458 0.798603 -7.790645 -18.181891 5.970838 162.999969 -54.261099 -175.892568 37.518174 -6.606601 -32.148182 -1.204171 -47.257438 9.070958 -118.777270 83.211840 -106.419594 1.118765 -13.342917 -5.298689 -0.265405 0.834168 -0.124834 -8.232004 -51.369775 16.400538 -152.776491 80.269013 -160.524864 1.208678 -17.926951 7.885182 -0.130364 -0.607862 -0.004832
29.811593 49.919303 64.362612 173.176999 -33.191253 -6.527886 8.113423 22.387250 6.864673 1.102182 3.466258 0.716537 1.794866 5.562911 1.185789 6.768780 18.734115 4.889490 -3.931269 16.135919 2.990958 -8.357104 -5.495351 6.941393 -3.773248 -2.827559 -8.214677 11.052625 -5.584384 -6.662662 -170.167874 -52.064280 177.431601 -7.413362 -15.325004 25.454220 -12.814772 -2.857413 0.811016 -7.839011 -18.297929 6.052111 162.281464 -53.991906 -175.456025 37.616289 -6.433440 -32.251814 -1.247598 -47.151146 9.093397 -118.733596 83.232481 -106.374496 1.096993 -13.322083 -5.297508 -0.255141 0.822086 -0.123742 -8.237568 -51.272535 16.400061 -152.687547 80.277246 -160.431649 1.207265 -17.910655 7.890212 -0.138273 -0.611367 -0.005521
29.810245 49.918098 64.379855 173.191594 -33.268791 -6.585148 8.056137 22.488400 6.873155 1.136583 3.474812 0.730943 1.740982 5.658908 1.181077 6.696488 18.847013 4.874627 -3.792398 16.173403 3.021690 -8.107028 -5.436048 6.946703 -3.763452 -2.773172 -8.097095 11.357938 -5.947643 -6.702888 -170.034358 -51.869849 177.359651 -7.449902 -15.315189 25.365703 -12.915428 -2.777306 0.824309 -7.880073 -18.408411 6.133850 161.515739 -53.733151 -174.974847 37.729492 -6.272696 -32.317657 -1.290825 -47.075198 9.151279 -118.564842 83.276596 -106.201343 1.076854 -13.278211 -5.288163 -0.261815 0.812204 -0.130950 -8.264228 -51.207693 16.455345 -152.550444 80.275440 -160.287895 1.221253 -17.886435 7.892604 -0.142320 -0.621157 -0.007535
29.807459 49.919685 64.394514 173.224568 -33.372973 -6.647708 7.989624 22.623780 6.881802 1.169257 3.478715 0.744548 1.691877 5.758883 1.177147 6.631296 18.956677 4.860484 -3.663739 16.216388 3.053827 -7.876126 -5.365348 6.957739 -3.762304 -2.747143 -7.984610 11.635314 -6.291830 -6.728916 -169.930676 -51.648195 177.316191 -7.486540 -15.326379 25.263867 -13.029914 -2.717662 0.832187 -7.935235 -18.514487 6.225135 160.753341 -53.481781 -174.469083 37.859814 -6.138544 -32.349624 -1.321392 -46.966642 9.193389 -118.384401 83.294199 -106.004735 1.061996 -13.259742 -5.282115 -0.252390 0.814654 -0.129880 -8.311846 -51.109918 16.506725 -152.378286 80.271969 -160.121887 1.249524 -17.866064 7.893434 -0.148837 -0.631932 -0.011333
29.802228 49.921679 64.409759 173.246414 -33.472164 -6.694849 7.966239 22.738176 6.907462 1.126823 3.531153 0.733946 1.684992 5.828637 1.183420 6.574179 19.062573 4.847274 -3.545376 16.262200 3.085729 -7.663990 -5.288399 6.971788 -3.767885 -2.746259 -7.886455 11.888942 -6.607017 -6.727523 -169.847294 -51.397827 177.296092 -7.522486 -15.351754 25.156412 -13.143921 -2.677360 0.830973 -8.026611 -18.620906 6.330564 160.036092 -53.234991 -173.961643 38.005820 -6.023402 -32.368806 -1.347235 -46.863159 9.230570 -118.174290 83.306900 -105.790406 1.055630 -13.244061 -5.275362 -0.240818 0.820645 -0.124273 -8.346435 -51.013374 16.544895 -152.196392 80.276221 -159.951839 1.280986 -17.847732 7.899190 -0.162851 -0.640215 -0.020436
29.793926 49.921136 64.429705 173.272399 -33.526197 -6.733935 7.870068 22.850849 6.879431 1.083170 3.619433 0.726060 1.739956 5.831735 1.197660 6.523958 19.163453 4.834117 -3.438276 16.307141 3.116342 -7.472386 -5.212052 6.987527 -3.778001 -2.763314 -7.809145 12.135903 -6.887898 -6.687614 -169.774601 -51.124195 177.283300 -7.559369 -15.372085 25.060776 -13.243723 -2.649470 0.822382 -8.154863 -18.731903 6.439150 159.380466 -52.990796 -173.475624 38.164798 -5.908851 -32.412131 -1.369930 -46.805587 9.250492 -117.959068 83.316327 -105.572412 1.059175 -13.239934 -5.265324 -0.239441 0.840979 -0.122840 -8.387751 -50.967440 16.574184 -151.847612 80.274757 -159.616248 1.344967 -17.819328 7.900049 -0.148753 -0.649499 -0.025059
29.786363 49.923418 64.446950 173.279937 -33.589242 -6.770421 7.792340 22.975063 6.865463 1.079819 3.666903 0.728816 1.755484 5.868578 1.203045 6.479507 19.257653 4.821896 -3.342262 16.351412 3.145924 -7.301246 -5.135977 7.005378 -3.789472 -2.792767 -7.758269 12.382721 -7.131219 -6.603850 -169.689872 -50.837194 177.256784 -7.603349 -15.372973 25.002147 -13.327474 -2.629133 0.810077 -8.304283 -18.847225 6.533114 158.790375 -52.744364 -173.027848 38.320329 -5.777420 -32.505155 -1.384446 -46.738945 9.279758 -117.728705 83.323881 -105.339206 1.070075 -13.230620 -5.257478 -0.244828 0.856784 -0.122324 -8.406843 -50.913477 16.594991 -151.762860 80.280047 -159.526777 1.379766 -17.799417 7.891740 -0.148891 -0.674266 -0.036473
29.782951 49.930220 64.459666 173.264161 -33.676333 -6.821351 7.768496 23.104297 6.899004 1.077751 3.701199 0.730984 1.751611 5.920561 1.206208 6.440734 19.342481 4.811952 -3.255646 16.394341 3.172484 -7.146552 -5.061802 7.021098 -3.799660 -2.827655 -7.734085 12.629119 -7.336009 -6.476225 -169.571855 -50.547173 177.200588 -7.653905 -15.349124 24.989740 -13.398435 -2.612768 0.799908 -8.449970 -18.961268 6.595500 158.259667 -52.494309 -172.624473 38.452925 -5.616673 -32.660527 -1.406925 -46.647591 9.348410 -117.488594 83.328741 -105.096211 1.112740 -13.238457 -5.246185 -0.276588 0.890957 -0.134728 -8.428386 -50.822850 16.650938 -151.748513 80.290507 -159.506015 1.424748 -17.772228 7.889266 -0.184491 -0.701855 -0.048544
29.773778 49.936644 64.471431 173.252608 -33.744984 -6.845654 7.725275 23.214340 6.897597 1.076041 3.731494 0.733007 1.748341 5.966473 1.209112 6.407392 19.416634 4.803700 -3.176481 16.432339 3.194122 -7.004271 -4.996590 7.030840 -3.807376 -2.859850 -7.732079 12.869558 -7.508446 -6.309451 -169.407452 -50.263251 177.109627 -7.693771 -15.298129 25.006381 -13.455677 -2.599397 0.797521 -8.564460 -19.068056 6.614791 157.789656 -52.248131 -172.285118 38.559495 -5.430906 -32.878105 -1.404584 -46.576255 9.375039 -117.267356 83.330664 -104.872931 1.120166 -13.218930 -5.237526 -0.275031 0.893133 -0.134897 -8.431243 -50.753851 16.674899 -151.584737 80.295724 -159.340812 1.431342 -17.750391 7.894855 -0.171660 -0.711314 -0.051510
29.759860 49.942397 64.482349 173.243883 -33.795683 -6.848590 7.667062 23.301338 6.867804 1.074525 3.758252 0.734966 1.745438 6.006996 1.211926 6.378234 19.481570 4.797336 -3.106078 16.460846 3.210244 -6.877288 -4.948652 7.034237 -3.816104 -2.890049 -7.750743 13.098274 -7.653773 -6.112446 -169.214727 -49.991509 177.004805 -7.713847 -15.230883 25.033995 -13.496137 -2.596879 0.800988 -8.638255 -19.161158 6.590030 157.403137 -52.010165 -172.038305 38.643692 -5.237217 -33.133063 -1.380999 -46.523967 9.367868 -117.063592 83.331251 -104.667503 1.096725 -13.172057 -5.233391 -0.249524 0.863608 -0.120631 -8.393331 -50.710987 16.631702 -151.487138 80.309321 -159.219746 1.452219 -17.747988 7.879083 -0.137984 -0.701934 -0.045047
29.748466 49.949926 64.490347 173.217897 -33.855091 -6.859916 7.634021 23.385059 6.859877 1.072821 3.781465 0.737091 1.742316 6.042135 1.215045 6.351377 19.537597 4.793832 -3.047030 16.476957 3.219569 -6.770015 -4.923144 7.029852 -3.829459 -2.920739 -7.785982 13.317018 -7.774982 -5.903042 -169.034694 -49.735751 176.910070 -7.725866 -15.167073 25.066760 -13.522335 -2.613197 0.804143 -8.670791 -19.235627 6.525264 157.125621 -51.780922 -171.901377 38.705937 -5.053529 -33.387870 -1.358695 -46.464520 9.384941 -116.888831 83.332608 -104.491294 1.100886 -13.154888 -5.219416 -0.254481 0.861298 -0.119478 -8.348916 -50.655447 16.600746 -151.596441 80.330135 -159.296025 1.474636 -17.735909 7.872911 -0.139187 -0.715009 -0.056171
29.739351 49.958914 64.495141 173.176370 -33.924862 -6.876945 7.660161 23.458409 6.891187 1.035791 3.809156 0.732020 1.738141 6.071416 1.217966 6.324245 19.584741 4.791569 -2.998786 16.478769 3.222501 -6.681486 -4.923759 7.018457 -3.845474 -2.951991 -7.829654 13.527556 -7.878262 -5.697161 -168.897410 -49.501134 176.839258 -7.737449 -15.114965 25.097096 -13.535144 -2.649703 0.805090 -8.660540 -19.297159 6.427624 156.972273 -51.568484 -171.879145 38.757890 -4.896390 -33.620820 -1.335692 -46.395580 9.424157 -116.703991 83.335347 -104.303956 1.101082 -13.129844 -5.204959 -0.253149 0.852932 -0.120841 -8.297799 -50.588075 16.589531 -151.728517 80.347679 -159.383731 1.460452 -17.724083 7.875586 -0.144668 -0.734238 -0.070234
